<svg xmlns="http://www.w3.org/2000/svg" viewBox="0 0 1200 800" width="1200" height="800">
  <defs>
    <linearGradient id="bgSec" x1="0" y1="0" x2="0" y2="1">
      <stop offset="0%" stop-color="#F3F5EE"/>
      <stop offset="100%" stop-color="#E4E9D8"/>
    </linearGradient>
    <filter id="softSec" x="-50%" y="-50%" width="200%" height="200%">
      <feGaussianBlur stdDeviation="45"/>
    </filter>
  </defs>
  <rect width="1200" height="800" fill="url(#bgSec)"/>
  <circle cx="980" cy="200" r="240" fill="#D6DCC6" opacity="0.7" filter="url(#softSec)"/>
  <rect x="120" y="330" width="16" height="240" rx="8" fill="#C9C2B4" opacity="0.6"/>
  <circle cx="128" cy="300" r="34" fill="#C68F6B" opacity="0.9"/>
  <g>
    <rect x="260" y="430" width="700" height="180" rx="26" fill="#7C905E"/>
    <rect x="260" y="430" width="700" height="46" rx="23" fill="#8FA36E"/>
    <rect x="290" y="360" width="180" height="120" rx="20" fill="#9BAB7C"/>
    <rect x="500" y="360" width="180" height="120" rx="20" fill="#9BAB7C"/>
    <rect x="710" y="360" width="180" height="120" rx="20" fill="#9BAB7C"/>
    <rect x="240" y="600" width="30" height="70" rx="8" fill="#5B6B47"/>
    <rect x="930" y="600" width="30" height="70" rx="8" fill="#5B6B47"/>
    <circle cx="770" cy="500" r="34" fill="#C68F6B"/>
  </g>
  <rect x="960" y="520" width="16" height="120" rx="8" fill="#B9C4A0"/>
  <ellipse cx="968" cy="510" rx="60" ry="30" fill="#647549" opacity="0.85"/>
  <g font-family="'Cormorant Garamond', Georgia, serif" fill="#4F5C3A">
    <rect x="40" y="700" width="230" height="52" rx="26" fill="#FBFAF6" opacity="0.9"/>
    <text x="66" y="734" font-size="24" letter-spacing="0.5">Room-by-Room</text>
  </g>
</svg>
